<?xml version="1.0" encoding="UTF-8"?><svg xmlns="http://www.w3.org/2000/svg" xmlns:xlink="http://www.w3.org/1999/xlink" contentScriptType="text/ecmascript" width="112.5pt" zoomAndPan="magnify" contentStyleType="text/css" viewBox="0 0 112.5 101.249998" height="101.249998pt" preserveAspectRatio="xMidYMid meet" version="1.2"><defs><g/><clipPath xml:id="clip1" id="clip1"><path d="M 27.359375 1.402344 L 84.957031 1.402344 L 84.957031 67.550781 L 27.359375 67.550781 Z M 27.359375 1.402344 "/></clipPath></defs><g xml:id="surface1" id="surface1"><g style="fill:rgb(28.62854%,29.798889%,63.529968%);fill-opacity:1;"><g transform="translate(37.533455, 99.049989)"><path style="stroke:none;" d="M 17.128906 0 L 17.128906 -3.261719 L 4.078125 -3.261719 L 4.078125 -13.050781 L 17.128906 -13.050781 L 17.128906 -16.3125 L 4.078125 -16.3125 C 2.285156 -16.3125 0.816406 -14.84375 0.816406 -13.050781 L 0.816406 -3.261719 C 0.816406 -1.46875 2.285156 0 4.078125 0 Z M 17.128906 0 "/></g></g><g style="fill:rgb(28.62854%,29.798889%,63.529968%);fill-opacity:1;"><g transform="translate(57.005685, 99.049989)"><path style="stroke:none;" d="M 8.972656 0 C 9.6875 0 10.421875 -0.265625 11.011719 -0.773438 L 16.519531 -5.507812 C 16.90625 -5.851562 17.109375 -6.28125 17.109375 -6.8125 L 17.128906 -16.3125 L 13.867188 -16.3125 L 13.867188 -7.546875 L 8.972656 -3.324219 L 4.078125 -7.546875 L 4.078125 -16.3125 L 0.816406 -16.3125 L 0.816406 -6.8125 C 0.816406 -6.300781 1.039062 -5.851562 1.425781 -5.507812 L 6.933594 -0.773438 C 7.546875 -0.265625 8.257812 0 8.972656 0 Z M 8.972656 0 "/></g></g><path style=" stroke:none;fill-rule:nonzero;fill:rgb(28.62854%,29.798889%,63.529968%);fill-opacity:1;" d="M 74.828125 23.617188 C 74.710938 23.402344 74.558594 23.191406 74.238281 23.027344 L 69.675781 20.375 C 69.613281 20.339844 69.546875 20.3125 69.476562 20.292969 C 69.453125 20.289062 69.429688 20.289062 69.40625 20.285156 C 69.359375 20.277344 69.308594 20.269531 69.261719 20.269531 L 69.253906 20.269531 C 69.121094 20.273438 68.988281 20.308594 68.871094 20.375 L 58.609375 26.339844 L 58.597656 26.320312 L 57.769531 26.804688 C 56.773438 27.382812 55.542969 27.382812 54.542969 26.804688 L 50.058594 24.199219 C 49.808594 24.054688 49.65625 23.785156 49.65625 23.496094 C 49.65625 23.203125 49.808594 22.9375 50.058594 22.792969 L 54.542969 20.1875 C 55.542969 19.605469 56.773438 19.605469 57.769531 20.1875 L 58.851562 20.8125 C 59.101562 20.957031 59.40625 20.957031 59.65625 20.8125 L 63.835938 18.386719 C 64.085938 18.242188 64.238281 17.972656 64.238281 17.683594 C 64.238281 17.394531 64.085938 17.125 63.835938 16.980469 L 57.769531 13.457031 C 56.773438 12.878906 55.542969 12.878906 54.542969 13.457031 L 39.691406 22.089844 C 38.617188 22.714844 38.617188 24.273438 39.691406 24.898438 L 54.542969 33.53125 C 55.542969 34.113281 56.773438 34.113281 57.769531 33.53125 L 69.253906 26.859375 L 69.253906 42.058594 L 65.5625 44.210938 L 57.769531 48.753906 C 57.523438 48.898438 57.261719 49.003906 56.984375 49.078125 C 56.164062 49.300781 55.285156 49.183594 54.542969 48.753906 L 43.867188 42.550781 C 43.367188 42.257812 43.058594 41.722656 43.058594 41.144531 L 43.058594 32.28125 C 43.058594 31.992188 42.90625 31.722656 42.65625 31.582031 L 38.480469 29.152344 C 38.230469 29.003906 37.921875 29.003906 37.675781 29.152344 C 37.425781 29.296875 37.269531 29.566406 37.269531 29.855469 L 37.269531 44.507812 C 37.269531 45.085938 37.578125 45.621094 38.078125 45.914062 L 54.542969 55.484375 C 55.027344 55.765625 55.578125 55.910156 56.136719 55.917969 L 56.148438 55.917969 C 56.226562 55.917969 56.304688 55.90625 56.382812 55.902344 C 56.445312 55.898438 56.503906 55.898438 56.566406 55.890625 C 56.648438 55.878906 56.730469 55.859375 56.8125 55.84375 C 56.867188 55.832031 56.925781 55.824219 56.980469 55.808594 C 57.070312 55.789062 57.15625 55.753906 57.238281 55.722656 C 57.289062 55.703125 57.335938 55.691406 57.382812 55.675781 C 57.515625 55.621094 57.644531 55.554688 57.769531 55.484375 L 71.976562 47.226562 L 74.230469 45.941406 C 74.734375 45.652344 75.046875 45.113281 75.046875 44.53125 L 75.046875 24.429688 C 75.046875 24.140625 74.964844 23.863281 74.828125 23.617188 "/><g clip-rule="nonzero" clip-path="url(#clip1)"><path style=" stroke:none;fill-rule:nonzero;fill:rgb(39.99939%,21.958923%,69.799805%);fill-opacity:1;" d="M 57.730469 8.601562 C 57.25 8.324219 56.710938 8.175781 56.15625 8.171875 C 55.605469 8.175781 55.0625 8.324219 54.585938 8.601562 L 34.742188 20.132812 C 33.746094 20.710938 33.132812 21.78125 33.132812 22.9375 L 33.132812 46 C 33.132812 47.15625 33.746094 48.226562 34.742188 48.804688 L 54.585938 60.335938 C 55.070312 60.617188 55.621094 60.765625 56.179688 60.769531 C 56.742188 60.765625 57.292969 60.617188 57.777344 60.335938 L 77.535156 48.855469 C 78.527344 48.277344 79.140625 47.210938 79.140625 46.054688 L 79.140625 39.390625 C 79.140625 39.097656 79.296875 38.832031 79.542969 38.6875 L 83.75 36.242188 C 83.996094 36.097656 84.304688 36.097656 84.554688 36.242188 C 84.804688 36.386719 84.957031 36.65625 84.957031 36.945312 L 84.957031 49.355469 C 84.953125 49.886719 84.824219 50.40625 84.574219 50.875 C 84.511719 51.179688 84.183594 51.539062 83.714844 51.910156 C 83.703125 51.917969 83.691406 51.925781 83.679688 51.9375 C 82.492188 52.867188 80.527344 53.828125 80.175781 54.03125 L 57.777344 67.046875 C 57.277344 67.335938 56.703125 67.484375 56.125 67.480469 L 56.101562 67.480469 L 56.101562 67.476562 C 55.566406 67.464844 55.046875 67.3125 54.585938 67.046875 L 28.96875 52.160156 C 27.972656 51.582031 27.359375 50.515625 27.359375 49.355469 L 27.359375 19.582031 C 27.359375 19.0625 27.425781 18.535156 27.652344 18.085938 C 27.683594 17.96875 27.992188 17.398438 28.632812 16.925781 C 28.875 16.765625 29.300781 16.542969 29.699219 16.3125 L 54.511719 1.894531 C 55.011719 1.605469 55.582031 1.453125 56.15625 1.460938 C 56.734375 1.453125 57.304688 1.605469 57.800781 1.894531 L 80.699219 15.195312 C 80.75 15.230469 80.792969 15.265625 80.835938 15.304688 L 81.125 15.472656 C 81.90625 15.886719 83.125 16.519531 83.785156 17.023438 L 83.839844 17.066406 C 83.847656 17.074219 83.859375 17.078125 83.867188 17.085938 C 83.890625 17.105469 83.90625 17.125 83.929688 17.144531 C 84.171875 17.347656 84.378906 17.589844 84.539062 17.859375 C 84.542969 17.863281 84.542969 17.867188 84.550781 17.871094 L 84.546875 17.871094 C 84.8125 18.320312 84.957031 18.835938 84.957031 19.359375 L 84.957031 30.261719 C 84.957031 30.550781 84.804688 30.816406 84.554688 30.960938 L 80.347656 33.410156 C 80.097656 33.550781 79.789062 33.550781 79.542969 33.410156 C 79.292969 33.261719 79.140625 32.996094 79.140625 32.707031 L 79.140625 22.875 C 79.140625 21.71875 78.527344 20.648438 77.53125 20.070312 Z M 57.730469 8.601562 "/></g></g></svg>